<svg xmlns="http://www.w3.org/2000/svg" viewBox="0 0 32 32">
  <defs>
    <linearGradient id="shieldGradient" x1="0%" y1="0%" x2="100%" y2="100%">
      <stop offset="0%" style="stop-color:#002868"/>
      <stop offset="50%" style="stop-color:#BF0A30"/>
      <stop offset="100%" style="stop-color:#001a4d"/>
    </linearGradient>
  </defs>

  <!-- Shield shape with gradient -->
  <path d="M16 1 L28 5 L28 14 C28 22 22 28 16 31 C10 28 4 22 4 14 L4 5 Z"
        fill="url(#shieldGradient)"/>

  <!-- Shield border -->
  <path d="M16 1 L28 5 L28 14 C28 22 22 28 16 31 C10 28 4 22 4 14 L4 5 Z"
        fill="none"
        stroke="rgba(255,255,255,0.3)"
        stroke-width="1"/>

  <!-- Gavel - side view style -->
  <!-- Gavel head (cylinder) -->
  <ellipse cx="16" cy="9" rx="7" ry="3" fill="#FFFFFF"/>
  <rect x="9" y="9" width="14" height="4" fill="#FFFFFF"/>
  <ellipse cx="16" cy="13" rx="7" ry="3" fill="#FFFFFF"/>

  <!-- Handle -->
  <rect x="14" y="13" width="4" height="10" rx="1" fill="#FFFFFF"/>

  <!-- Sound block -->
  <rect x="10" y="24" width="12" height="3" rx="1" fill="#FFFFFF"/>
</svg>